<mxfile host="app.diagrams.net" modified="2021-10-01T15:39:11.048Z" agent="5.0 (Macintosh; Intel Mac OS X 10_15_7) AppleWebKit/537.36 (KHTML, like Gecko) Chrome/93.0.4577.63 Safari/537.36" etag="6ACDKekHj6htyPJRKZ8O" version="15.4.1" type="github">
  <diagram id="Fa5mXATX3_22J3xhCvRf" name="Page-1">
    <mxGraphModel dx="946" dy="646" grid="1" gridSize="10" guides="1" tooltips="1" connect="1" arrows="1" fold="1" page="1" pageScale="1" pageWidth="850" pageHeight="1100" math="0" shadow="0">
      <root>
        <mxCell id="0" />
        <mxCell id="1" parent="0" />
        <mxCell id="PuwEulNzS3LSbtrvml2o-24" value="" style="edgeStyle=orthogonalEdgeStyle;rounded=0;orthogonalLoop=1;jettySize=auto;html=1;" edge="1" parent="1" source="PuwEulNzS3LSbtrvml2o-2" target="PuwEulNzS3LSbtrvml2o-9">
          <mxGeometry relative="1" as="geometry" />
        </mxCell>
        <mxCell id="PuwEulNzS3LSbtrvml2o-2" value="LB / API Gateway" style="rounded=0;whiteSpace=wrap;html=1;rotation=-90;" vertex="1" parent="1">
          <mxGeometry x="160" y="180" width="120" height="60" as="geometry" />
        </mxCell>
        <mxCell id="PuwEulNzS3LSbtrvml2o-6" style="edgeStyle=orthogonalEdgeStyle;rounded=0;orthogonalLoop=1;jettySize=auto;html=1;exitX=0.5;exitY=0.5;exitDx=0;exitDy=0;exitPerimeter=0;entryX=0.5;entryY=0;entryDx=0;entryDy=0;" edge="1" parent="1" source="PuwEulNzS3LSbtrvml2o-3" target="PuwEulNzS3LSbtrvml2o-11">
          <mxGeometry relative="1" as="geometry" />
        </mxCell>
        <mxCell id="PuwEulNzS3LSbtrvml2o-3" value="Actor" style="shape=umlActor;verticalLabelPosition=bottom;verticalAlign=top;html=1;outlineConnect=0;" vertex="1" parent="1">
          <mxGeometry x="50" y="180" width="30" height="60" as="geometry" />
        </mxCell>
        <mxCell id="PuwEulNzS3LSbtrvml2o-7" value="Discover srvc" style="shape=process;whiteSpace=wrap;html=1;backgroundOutline=1;" vertex="1" parent="1">
          <mxGeometry x="200" y="60" width="120" height="60" as="geometry" />
        </mxCell>
        <mxCell id="PuwEulNzS3LSbtrvml2o-8" value="Config srvc" style="shape=process;whiteSpace=wrap;html=1;backgroundOutline=1;" vertex="1" parent="1">
          <mxGeometry x="460" y="60" width="120" height="60" as="geometry" />
        </mxCell>
        <mxCell id="PuwEulNzS3LSbtrvml2o-22" value="" style="edgeStyle=orthogonalEdgeStyle;rounded=0;orthogonalLoop=1;jettySize=auto;html=1;" edge="1" parent="1" source="PuwEulNzS3LSbtrvml2o-9" target="PuwEulNzS3LSbtrvml2o-21">
          <mxGeometry relative="1" as="geometry" />
        </mxCell>
        <mxCell id="PuwEulNzS3LSbtrvml2o-38" style="edgeStyle=orthogonalEdgeStyle;rounded=0;orthogonalLoop=1;jettySize=auto;html=1;" edge="1" parent="1" source="PuwEulNzS3LSbtrvml2o-9" target="PuwEulNzS3LSbtrvml2o-35">
          <mxGeometry relative="1" as="geometry" />
        </mxCell>
        <mxCell id="PuwEulNzS3LSbtrvml2o-9" value="Video upload srvc" style="shape=process;whiteSpace=wrap;html=1;backgroundOutline=1;" vertex="1" parent="1">
          <mxGeometry x="310" y="160" width="120" height="60" as="geometry" />
        </mxCell>
        <mxCell id="PuwEulNzS3LSbtrvml2o-10" value="Authentication srvc" style="shape=process;whiteSpace=wrap;html=1;backgroundOutline=1;" vertex="1" parent="1">
          <mxGeometry x="330" y="60" width="120" height="60" as="geometry" />
        </mxCell>
        <mxCell id="PuwEulNzS3LSbtrvml2o-18" value="" style="edgeStyle=orthogonalEdgeStyle;rounded=0;orthogonalLoop=1;jettySize=auto;html=1;" edge="1" parent="1" source="PuwEulNzS3LSbtrvml2o-11">
          <mxGeometry relative="1" as="geometry">
            <mxPoint x="190" y="210" as="targetPoint" />
          </mxGeometry>
        </mxCell>
        <mxCell id="PuwEulNzS3LSbtrvml2o-11" value="CDN" style="rounded=0;whiteSpace=wrap;html=1;rotation=-90;" vertex="1" parent="1">
          <mxGeometry x="80" y="180" width="120" height="60" as="geometry" />
        </mxCell>
        <mxCell id="PuwEulNzS3LSbtrvml2o-19" value="RDS Cluster" style="shape=dataStorage;whiteSpace=wrap;html=1;fixedSize=1;" vertex="1" parent="1">
          <mxGeometry x="570" y="250" width="100" height="80" as="geometry" />
        </mxCell>
        <mxCell id="PuwEulNzS3LSbtrvml2o-21" value="blob" style="ellipse;shape=cloud;whiteSpace=wrap;html=1;" vertex="1" parent="1">
          <mxGeometry x="650" y="90" width="120" height="80" as="geometry" />
        </mxCell>
        <mxCell id="PuwEulNzS3LSbtrvml2o-29" value="" style="edgeStyle=orthogonalEdgeStyle;rounded=0;orthogonalLoop=1;jettySize=auto;html=1;" edge="1" parent="1" source="PuwEulNzS3LSbtrvml2o-26" target="PuwEulNzS3LSbtrvml2o-28">
          <mxGeometry relative="1" as="geometry" />
        </mxCell>
        <mxCell id="PuwEulNzS3LSbtrvml2o-31" style="edgeStyle=orthogonalEdgeStyle;rounded=0;orthogonalLoop=1;jettySize=auto;html=1;" edge="1" parent="1" source="PuwEulNzS3LSbtrvml2o-26" target="PuwEulNzS3LSbtrvml2o-2">
          <mxGeometry relative="1" as="geometry">
            <Array as="points">
              <mxPoint x="280" y="270" />
            </Array>
          </mxGeometry>
        </mxCell>
        <mxCell id="PuwEulNzS3LSbtrvml2o-26" value="Video feed srvc" style="shape=process;whiteSpace=wrap;html=1;backgroundOutline=1;" vertex="1" parent="1">
          <mxGeometry x="310" y="240" width="120" height="60" as="geometry" />
        </mxCell>
        <mxCell id="PuwEulNzS3LSbtrvml2o-28" value="Feed cache" style="ellipse;shape=cloud;whiteSpace=wrap;html=1;" vertex="1" parent="1">
          <mxGeometry x="260" y="380" width="120" height="80" as="geometry" />
        </mxCell>
        <mxCell id="PuwEulNzS3LSbtrvml2o-33" value="" style="edgeStyle=orthogonalEdgeStyle;rounded=0;orthogonalLoop=1;jettySize=auto;html=1;" edge="1" parent="1" source="PuwEulNzS3LSbtrvml2o-30" target="PuwEulNzS3LSbtrvml2o-28">
          <mxGeometry relative="1" as="geometry" />
        </mxCell>
        <mxCell id="PuwEulNzS3LSbtrvml2o-34" style="edgeStyle=orthogonalEdgeStyle;rounded=0;orthogonalLoop=1;jettySize=auto;html=1;" edge="1" parent="1" source="PuwEulNzS3LSbtrvml2o-30" target="PuwEulNzS3LSbtrvml2o-35">
          <mxGeometry relative="1" as="geometry" />
        </mxCell>
        <mxCell id="PuwEulNzS3LSbtrvml2o-36" value="Text" style="edgeLabel;html=1;align=center;verticalAlign=middle;resizable=0;points=[];" vertex="1" connectable="0" parent="PuwEulNzS3LSbtrvml2o-34">
          <mxGeometry x="0.2286" y="1" relative="1" as="geometry">
            <mxPoint as="offset" />
          </mxGeometry>
        </mxCell>
        <mxCell id="PuwEulNzS3LSbtrvml2o-30" value="Feed cache srvc" style="shape=process;whiteSpace=wrap;html=1;backgroundOutline=1;" vertex="1" parent="1">
          <mxGeometry x="470" y="380" width="120" height="60" as="geometry" />
        </mxCell>
        <mxCell id="PuwEulNzS3LSbtrvml2o-32" value="Rate Limiter,&lt;br&gt;Circuit Breaker" style="text;html=1;strokeColor=none;fillColor=none;align=center;verticalAlign=middle;whiteSpace=wrap;rounded=0;" vertex="1" parent="1">
          <mxGeometry x="170" y="260" width="90" height="90" as="geometry" />
        </mxCell>
        <mxCell id="PuwEulNzS3LSbtrvml2o-39" value="" style="edgeStyle=orthogonalEdgeStyle;rounded=0;orthogonalLoop=1;jettySize=auto;html=1;" edge="1" parent="1" source="PuwEulNzS3LSbtrvml2o-35" target="PuwEulNzS3LSbtrvml2o-19">
          <mxGeometry relative="1" as="geometry" />
        </mxCell>
        <mxCell id="PuwEulNzS3LSbtrvml2o-35" value="sharding LB" style="rhombus;whiteSpace=wrap;html=1;" vertex="1" parent="1">
          <mxGeometry x="470" y="240" width="80" height="80" as="geometry" />
        </mxCell>
      </root>
    </mxGraphModel>
  </diagram>
</mxfile>
